<svg viewBox="0 0 64 64" xmlns="http://www.w3.org/2000/svg">
  <g data-name="Support-Call Center-Help-Information-Customer Service"
    id="Support-Call_Center-Help-Information-Customer_Service">
    <polygon points="24 26 24 30 22 32 20 32 18 30 18 26 24 26" style="fill:#ffc477" />
    <polygon points="61 49 61 53 58 53 6 53 3 53 3 49 7 49 13 49 18 49 24 49 29 49 35 49 61 49" style="fill:#a97c50" />
    <path
      d="M60.95,16.05a11.984,11.984,0,0,1-13,10.9,11.725,11.725,0,0,1-5.46-1.88L37,26l1.68-4.89a11.995,11.995,0,1,1,22.27-5.06Z"
      style="fill:#00ccb3" />
    <rect height="8" style="fill:#a97c50" width="52" x="6" y="53" />
    <polygon points="54 13 54 17 51 17 51 20 47 20 47 17 44 17 44 13 47 13 47 10 51 10 51 13 54 13"
      style="fill:#e6e7e8" />
    <path d="M29,49H24L22.19,35.81,23,35l-.2-.6L26,35l1.38-3.46,4.1,1.86A6,6,0,0,1,35,38.87V49Z" style="fill:#3d9ae2" />
    <path d="M32,16v4a1,1,0,0,1-1,1H28V15h3A1,1,0,0,1,32,16Z" style="fill:#ee8700" />
    <path d="M24,26v2.32a6.958,6.958,0,0,1-6,0V26Z" style="fill:#ffb655" />
    <path d="M27.44,16a2.009,2.009,0,0,1-1.9-1.37L25,13l-1.87,1.4a7.982,7.982,0,0,1-4.8,1.6H14v4a7,7,0,0,0,14,0V16Z"
      style="fill:#ffc477" />
    <path d="M28,15v1h-.56a2.009,2.009,0,0,1-1.9-1.37L25,13l-1.87,1.4a7.982,7.982,0,0,1-4.8,1.6H14V14a7,7,0,0,1,14,0Z"
      style="fill:#57565c" />
    <polygon points="24 30 27.38 31.54 26 35 22.8 34.4 22 32 24 30" style="fill:#1e81ce" />
    <polygon points="22.19 35.81 24 49 18 49 19.81 35.81 21 37 22.19 35.81" style="fill:#ed1c24" />
    <polygon points="22.8 34.4 23 35 22.19 35.81 21 37 19.81 35.81 19 35 19.2 34.4 20 32 22 32 22.8 34.4"
      style="fill:#ed1c24" />
    <polygon points="20 32 19.2 34.4 16 35 14.62 31.54 18 30 20 32" style="fill:#1e81ce" />
    <path d="M13,49H7V38.87a6,6,0,0,1,3.52-5.47l4.1-1.86L16,35l3.2-.6L19,35l.81.81L18,49Z" style="fill:#3d9ae2" />
    <path d="M14,20v1H11a1,1,0,0,1-1-1V16a1,1,0,0,1,1-1h3v5Z" style="fill:#ee8700" />
    <rect height="2" style="fill:#8b5e3c" width="52" x="6" y="53" />
    <path
      d="M61,48H36V38.87a7.032,7.032,0,0,0-4.1-6.38L25,29.36V26.92A8.1,8.1,0,0,0,27.24,25H29a3.009,3.009,0,0,0,3-3v-.28A2,2,0,0,0,33,20V16a2.006,2.006,0,0,0-2-2V12a10,10,0,0,0-20,0v2a2.006,2.006,0,0,0-2,2v4a2.006,2.006,0,0,0,2,2h2.26A8.06,8.06,0,0,0,17,26.92v2.44l-6.9,3.13A7.032,7.032,0,0,0,6,38.87V48H3a1,1,0,0,0-1,1v4a1,1,0,0,0,1,1H5v7a1,1,0,0,0,1,1H58a1,1,0,0,0,1-1V54h2a1,1,0,0,0,1-1V49A1,1,0,0,0,61,48ZM26.93,35.37l.99-2.49,3.15,1.43A5.018,5.018,0,0,1,34,38.87V48H30V40H28v8H24.87L23.25,36.17l.46-.46a1.047,1.047,0,0,0,.08-.11l2.03.38A1.1,1.1,0,0,0,26,36,1,1,0,0,0,26.93,35.37Zm-.83-3.32-.72,1.82-1.82-.34-.42-1.26,1.08-1.07ZM27,14.88a1,1,0,0,1-.51-.56l-.54-1.64a1.008,1.008,0,0,0-1.55-.48l-1.87,1.4a7.042,7.042,0,0,1-4.2,1.4H15V14a6,6,0,0,1,12,0ZM29,23h-.59a8.361,8.361,0,0,0,.33-1H30A1,1,0,0,1,29,23Zm2-3H29V16h2ZM13,20H11V16h2Zm0-6V12a8,8,0,0,1,16,0v2a8,8,0,0,0-16,0Zm2,6V17h3.33a9.032,9.032,0,0,0,5.4-1.8l.76-.57.11.32A2.975,2.975,0,0,0,27,16.96V20a5.984,5.984,0,0,1-.81,3H21v2h3.31A5.995,5.995,0,0,1,15,20Zm5.54,17.87a.879.879,0,0,0,.92,0L22.85,48h-3.7Zm-.4-3.14L20.72,33h.56l.58,1.73-.86.86ZM21.59,31H20.41L19,29.59V27.74a7.822,7.822,0,0,0,4,0v1.85Zm-3.81.2,1.08,1.07-.42,1.26-1.82.34-.72-1.82ZM8,38.87a5.018,5.018,0,0,1,2.93-4.56l3.15-1.43.99,2.49A1,1,0,0,0,16,36a1.1,1.1,0,0,0,.18-.02l2.03-.38a1.047,1.047,0,0,0,.08.11l.46.46L17.13,48H14V40H12v8H8ZM57,60H7V54H57Zm3-8H4V50H60Z" />
    <path
      d="M44,18h2v2a1,1,0,0,0,1,1h4a1,1,0,0,0,1-1V18h2a1,1,0,0,0,1-1V13a1,1,0,0,0-1-1H52V10a1,1,0,0,0-1-1H47a1,1,0,0,0-1,1v2H44a1,1,0,0,0-1,1v4A1,1,0,0,0,44,18Zm1-4h2a1,1,0,0,0,1-1V11h2v2a1,1,0,0,0,1,1h2v2H51a1,1,0,0,0-1,1v2H48V17a1,1,0,0,0-1-1H45Z" />
    <path
      d="M36.232,26.642a1.007,1.007,0,0,0,.93.34l5.116-.858a13.04,13.04,0,0,0,5.589,1.826q.581.051,1.156.051A13,13,0,0,0,58.958,6.644,12.993,12.993,0,0,0,37.591,21.211l-1.54,4.459A1,1,0,0,0,36.232,26.642Zm1.81-12.6a11,11,0,0,1,11.916-10h0a11,11,0,1,1-1.918,21.916,10.86,10.86,0,0,1-5.011-1.723,1,1,0,0,0-.544-.16,1.021,1.021,0,0,0-.165.014l-3.83.642,1.138-3.3a1,1,0,0,0-.085-.837A10.912,10.912,0,0,1,38.042,14.041Z" />
    <rect height="2" width="2" x="23" y="18" />
    <rect height="2" width="2" x="17" y="18" />
  </g>
</svg>